/* XPM */
static char * zeit_xpm[] = {
"32 32 124 2",
"  	c None",
". 	c #EDDA00",
"+ 	c #C4D324",
"@ 	c #ECDA01",
"# 	c #9ACD32",
"$ 	c #A1CE30",
"% 	c #DCD716",
"& 	c #B1CE2B",
"* 	c #D6CA13",
"= 	c #D8C911",
"- 	c #DDCD0E",
"; 	c #94C432",
"> 	c #667D2E",
", 	c #5F712E",
"' 	c #919328",
") 	c #EAD802",
"! 	c #5F792F",
"~ 	c #576D2F",
"{ 	c #586D2F",
"] 	c #576C2F",
"^ 	c #556B2F",
"/ 	c #8E9028",
"( 	c #98CA32",
"_ 	c #8AB631",
": 	c #98B62D",
"< 	c #C7BE19",
"[ 	c #CABE17",
"} 	c #C9BD17",
"| 	c #8D9027",
"1 	c #B8B01E",
"2 	c #9ECD31",
"3 	c #D5D61B",
"4 	c #D8C912",
"5 	c #6E7A2D",
"6 	c #898D29",
"7 	c #E5D308",
"8 	c #ACCF2D",
"9 	c #E5D90C",
"0 	c #E8D604",
"a 	c #969627",
"b 	c #64742E",
"c 	c #D0C216",
"d 	c #ECDA02",
"e 	c #C4B91A",
"f 	c #5C6F2E",
"g 	c #A5A123",
"h 	c #EBD802",
"i 	c #E0CF0C",
"j 	c #7C832B",
"k 	c #7A822B",
"l 	c #DECE0D",
"m 	c #B3D02B",
"n 	c #E8D908",
"o 	c #A8A323",
"p 	c #5B6E2F",
"q 	c #C2B71B",
"r 	c #9BCD32",
"s 	c #CDD420",
"t 	c #65742E",
"u 	c #939427",
"v 	c #E8D605",
"w 	c #9FC82F",
"x 	c #7F8B2C",
"y 	c #6C792D",
"z 	c #D6C712",
"A 	c #7EA731",
"B 	c #566C2F",
"C 	c #B1AA21",
"D 	c #ECD901",
"E 	c #90BF31",
"F 	c #7F882B",
"G 	c #E2D20A",
"H 	c #709230",
"I 	c #59712F",
"J 	c #99B72D",
"K 	c #E4D80D",
"L 	c #86B231",
"M 	c #586F2F",
"N 	c #739630",
"O 	c #98CB32",
"P 	c #C2D325",
"Q 	c #93C432",
"R 	c #64812F",
"S 	c #617C2F",
"T 	c #91C131",
"U 	c #A0CE30",
"V 	c #DAD717",
"W 	c #99CC32",
"X 	c #799F30",
"Y 	c #566D2F",
"Z 	c #81AB31",
"` 	c #B1D02C",
" .	c #8CBA31",
"..	c #5B752F",
"+.	c #6B8C30",
"@.	c #97C832",
"#.	c #CBD421",
"$.	c #96C832",
"%.	c #6B8B30",
"&.	c #8DBB31",
"*.	c #A5CE2F",
"=.	c #E0D812",
"-.	c #81AA31",
";.	c #B8D129",
">.	c #EAD904",
",.	c #92C232",
"'.	c #607C2F",
").	c #5A732F",
"!.	c #80AA31",
"~.	c #88B431",
"{.	c #8BB430",
"].	c #BCBB20",
"^.	c #CCC016",
"/.	c #E7D604",
"(.	c #87B331",
"_.	c #6A782D",
":.	c #DCCD0D",
"<.	c #58702F",
"[.	c #6B7B2D",
"}.	c #8FBE31",
"|.	c #94BF30",
"1.	c #D7D418",
"2.	c #E7D909",
"3.	c #CAD423",
"                        . . . . . . . .                         ",
"                  . . . . . . . . . . . . . .                   ",
"              + @ . . . . . . . . . . . . . . . .               ",
"            # $ % . . . . . . . . . . . . . . . . .             ",
"          # # # & * = = = = = = = = = = = = - . . . .           ",
"        # # # # ; > , , , , , , , , , , , , ' ) . . . .         ",
"      # # # # # ; ! ~ { { { { { { { { ] ^ ^ / ) . . . . .       ",
"    # # # # # # ( _ : < [ [ [ [ [ [ } | ^ ] 1 . . . . . . .     ",
"    # # # # # # # # 2 3 . . . . . . 4 5 ^ 6 7 . . . . . . .     ",
"  # # # # # # # # # # 8 9 . . . . 0 a ^ b c . . . . . . . . .   ",
"  # # # # # # # # # # # + d . . . e f ^ g h . . . . . . . . .   ",
"  # # # # # # # # # # # $ % . . i j ^ k l . . . . . . . . . .   ",
"# # # # # # # # # # # # # m n h o ^ p q . . . . . . . . . . . . ",
"# # # # # # # # # # # # # r s c t ^ u v . . . . . . . . . . . . ",
"# # # # # # # # # # # # # # w x ^ y z . . . . . . . . . . . . . ",
"# # # # # # # # # # # # # # A B B C D . . . . . . . . . . . . . ",
"# # # # # # # # # # # # # E ! ^ F G . . . . . . . . . . . . . . ",
"# # # # # # # # # # # # ( H ^ I J K . . . . . . . . . . . . . . ",
"# # # # # # # # # # # # L M ^ N O P d . . . . . . . . . . . . . ",
"# # # # # # # # # # # Q R ^ S T # U V . . . . . . . . . . . . . ",
"  # # # # # # # # # W X ^ Y Z # # # ` n . . . . . . . . . . .   ",
"  # # # # # # # # #  ...^ +.@.# # # r #.. . . . . . . . . . .   ",
"  # # # # # # # # $.%.^ ..&.# # # # # *.=.. . . . . . . . . .   ",
"    # # # # # # # -.Y ^ X W # # # # # # ;.>.. . . . . . . .     ",
"    # # # # # # ,.'.^ ).!.~.~.~.~.~.~.~.{.].^./.. . . . . .     ",
"      # # # # # (.B ^ ^ B B B B B B B B B ~ _.:.. . . . .       ",
"        # # # # (.I <.<.<.<.<.<.<.<.<.<.<.<.[.:.. . . .         ",
"          # # # $.}.}.}.}.}.}.}.}.}.}.}.}.}.|.1.. . .           ",
"            # # # # # # # # # # # # # # # # # ` 2..             ",
"              # # # # # # # # # # # # # # # # r 3.              ",
"                  # # # # # # # # # # # # # #                   ",
"                        # # # # # # # #                         "};
