<?xml version="1.0" encoding="utf-8"?>
<!-- Generator: Adobe Illustrator 13.0.0, SVG Export Plug-In . SVG Version: 6.00 Build 14948)  -->
<!DOCTYPE svg PUBLIC "-//W3C//DTD SVG 1.1//EN" "http://www.w3.org/Graphics/SVG/1.1/DTD/svg11.dtd">
<svg version="1.1" id="Layer_1" xmlns="http://www.w3.org/2000/svg" xmlns:xlink="http://www.w3.org/1999/xlink" x="0px" y="0px"
	 width="128px" height="128px" viewBox="0 0 128 128" enable-background="new 0 0 128 128" xml:space="preserve">
<g>
	<g>
		
			<radialGradient id="SVGID_1_" cx="63.9023" cy="64.002" r="53.1358" gradientTransform="matrix(1 0 0 1 0 -9.765625e-04)" gradientUnits="userSpaceOnUse">
			<stop  offset="0" style="stop-color:#FAFAFA"/>
			<stop  offset="0.3109" style="stop-color:#F4F4F4"/>
			<stop  offset="0.7262" style="stop-color:#E3E3E3"/>
			<stop  offset="1" style="stop-color:#D4D4D4"/>
		</radialGradient>
		<path fill="url(#SVGID_1_)" stroke="#B3B3B3" stroke-width="2" d="M108.586,22.207v83.586c0,10.285-8.344,18.625-18.637,18.625
			H37.856c-10.295,0-18.637-8.34-18.637-18.625V22.207c0-10.285,8.342-18.623,18.637-18.623h52.093
			C100.242,3.584,108.586,11.922,108.586,22.207L108.586,22.207z"/>
		<path fill="#B3B3B3" d="M90.145,122.092H38.05c-10.295,0-18.637-8.34-18.637-18.625v2.326c0,10.285,8.342,18.625,18.637,18.625
			h52.094c10.293,0,18.637-8.34,18.637-18.625v-2.326C108.781,113.752,100.438,122.092,90.145,122.092z"/>
		<path fill="#FFFFFF" d="M30.385,11.57c2.079-1.734,4.432-2.905,7.665-2.905h52.094c3.234,0,5.586,1.171,7.666,2.905h2.629
			c-2.621-2.646-5.805-4.238-10.295-4.238H38.05c-4.489,0-7.673,1.593-10.294,4.238H30.385z"/>
	</g>
	<g>
		<linearGradient id="SVGID_2_" gradientUnits="userSpaceOnUse" x1="63.999" y1="35.6895" x2="63.999" y2="98.2622">
			<stop  offset="0" style="stop-color:#E20A16"/>
			<stop  offset="1" style="stop-color:#B51015"/>
		</linearGradient>
		<path fill="url(#SVGID_2_)" d="M100.246,73.926c1.971-1.877,2.951-4.238,2.951-6.898c0-2.76-0.984-5.121-2.955-6.994
			L78.852,38.547c-1.971-1.873-4.238-2.857-7-2.857c-2.662,0-5.029,0.984-6.998,2.857c-1.869,1.969-2.859,4.332-2.859,6.994
			c0,2.762,0.99,5.027,2.863,6.998l4.633,4.531l-34.835-0.002c-2.76,0-5.125,0.988-6.994,2.959
			c-1.975,1.873-2.859,4.234-2.859,6.992c0,2.662,0.885,5.027,2.859,6.9c1.873,1.971,4.238,2.859,6.996,2.955l34.835,0.004
			l-4.633,4.533c-1.873,1.873-2.861,4.238-2.859,7c0,2.654,0.99,5.021,2.859,6.994c1.971,1.869,4.34,2.855,6.998,2.855
			c2.762,0,5.027-0.982,7-2.855L100.246,73.926z"/>
		<g opacity="0.6">
			<path fill="#FFFFFF" d="M98.158,61.875L78.689,42.322c-1.797-1.709-3.859-2.6-6.373-2.6c-2.422,0-4.576,0.896-6.371,2.6
				c-1.309,1.381-2.136,2.976-2.451,4.738c-0.01-0.168-0.021-0.332-0.021-0.5c0-2.417,0.896-4.572,2.597-6.366
				c1.797-1.704,3.951-2.602,6.371-2.602c2.514,0,4.578,0.893,6.373,2.602l19.469,19.552c1.795,1.707,2.688,3.859,2.688,6.277
				c0,0.578-0.055,1.134-0.148,1.671C100.717,65.464,99.838,63.472,98.158,61.875z"/>
			<path fill="#FFFFFF" d="M73.725,60.303H35.438c-2.512,0.088-4.67,0.896-6.367,2.691c-1.371,1.298-2.162,2.854-2.463,4.594
				c-0.006-0.148-0.02-0.291-0.02-0.439c0-2.424,0.807-4.579,2.607-6.283c1.699-1.794,3.857-2.603,6.367-2.69h35.986L73.725,60.303z
				"/>
		</g>
	</g>
</g>
</svg>
