<?xml version="1.0" encoding="utf-8"?>
<!-- Generator: Adobe Illustrator 13.0.0, SVG Export Plug-In . SVG Version: 6.00 Build 14948)  -->
<!DOCTYPE svg PUBLIC "-//W3C//DTD SVG 1.1//EN" "http://www.w3.org/Graphics/SVG/1.1/DTD/svg11.dtd">
<svg version="1.1" id="Layer_1" xmlns="http://www.w3.org/2000/svg" xmlns:xlink="http://www.w3.org/1999/xlink" x="0px" y="0px"
	 width="128px" height="128px" viewBox="0 0 128 128" enable-background="new 0 0 128 128" xml:space="preserve">
<g>
	<g>
		
			<linearGradient id="SVGID_1_" gradientUnits="userSpaceOnUse" x1="-2568.0776" y1="1616.4102" x2="-2548.3313" y2="1616.0823" gradientTransform="matrix(0.7461 0.6658 -0.6658 0.7461 3091.1138 514.4963)">
			<stop  offset="0" style="stop-color:#5F5D5C"/>
			<stop  offset="1" style="stop-color:#181500"/>
		</linearGradient>
		<path fill="url(#SVGID_1_)" d="M115.088,15.859l-8.58-7.656c-1.699-1.516-4.306-1.368-5.823,0.332
			c-1.517,1.7-1.369,4.307,0.331,5.825l0.746,0.665L98.1,19.129l7.088,6.324l3.663-4.103l0.746,0.666
			c1.7,1.516,4.307,1.367,5.823-0.332C116.938,19.984,116.788,17.377,115.088,15.859z"/>
		<linearGradient id="SVGID_2_" gradientUnits="userSpaceOnUse" x1="64.2412" y1="5.8887" x2="64.2412" y2="121.6489">
			<stop  offset="0" style="stop-color:#E20A16"/>
			<stop  offset="1" style="stop-color:#B51015"/>
		</linearGradient>
		<circle fill="url(#SVGID_2_)" cx="64.241" cy="63.769" r="57.88"/>
		<radialGradient id="SVGID_3_" cx="64.2427" cy="63.7695" r="49.3904" gradientUnits="userSpaceOnUse">
			<stop  offset="0" style="stop-color:#FAFAFA"/>
			<stop  offset="0.3109" style="stop-color:#F4F4F4"/>
			<stop  offset="0.7262" style="stop-color:#E3E3E3"/>
			<stop  offset="1" style="stop-color:#D4D4D4"/>
		</radialGradient>
		<path fill="url(#SVGID_3_)" d="M113.633,63.769c0,27.276-22.114,49.391-49.391,49.391c-27.277,0-49.39-22.115-49.39-49.391
			c0-27.281,22.112-49.39,49.39-49.39C91.519,14.379,113.633,36.488,113.633,63.769z"/>
		<path opacity="0.5" fill="#FFFFFF" d="M17.257,38.485c10.583-15.41,29.048-28.037,47.235-28.037
			c18.186,0,36.158,12.627,46.736,28.037h2.012C102.027,20.349,84.813,7.663,64.246,7.663c-20.574,0-37.788,12.686-49.004,30.822
			H17.257z"/>
		<linearGradient id="SVGID_4_" gradientUnits="userSpaceOnUse" x1="37.4248" y1="78.8398" x2="55.6865" y2="78.8398">
			<stop  offset="0" style="stop-color:#E20A16"/>
			<stop  offset="1" style="stop-color:#B51015"/>
		</linearGradient>
		<circle fill="url(#SVGID_4_)" cx="46.556" cy="78.84" r="9.131"/>
		<linearGradient id="SVGID_5_" gradientUnits="userSpaceOnUse" x1="72.6201" y1="78.8398" x2="90.8818" y2="78.8398">
			<stop  offset="0" style="stop-color:#FFD207"/>
			<stop  offset="1" style="stop-color:#FAA61A"/>
		</linearGradient>
		<circle fill="url(#SVGID_5_)" cx="81.751" cy="78.84" r="9.131"/>
		<g>
			<g>
				<g>
					<linearGradient id="SVGID_6_" gradientUnits="userSpaceOnUse" x1="62.9805" y1="22.2471" x2="66.1582" y2="22.2471">
						<stop  offset="0" style="stop-color:#5F5D5C"/>
						<stop  offset="1" style="stop-color:#181500"/>
					</linearGradient>
					<path fill="url(#SVGID_6_)" d="M66.158,25.653c0,0.877-0.711,1.589-1.589,1.589l0,0c-0.878,0-1.589-0.712-1.589-1.589v-6.812
						c0-0.877,0.711-1.589,1.589-1.589l0,0c0.878,0,1.589,0.712,1.589,1.589V25.653z"/>
					<linearGradient id="SVGID_7_" gradientUnits="userSpaceOnUse" x1="62.9805" y1="102.7549" x2="66.1582" y2="102.7549">
						<stop  offset="0" style="stop-color:#5F5D5C"/>
						<stop  offset="1" style="stop-color:#181500"/>
					</linearGradient>
					<path fill="url(#SVGID_7_)" d="M66.158,106.162c0,0.877-0.711,1.588-1.589,1.588l0,0c-0.878,0-1.589-0.711-1.589-1.588V99.35
						c0-0.877,0.711-1.59,1.589-1.59l0,0c0.878,0,1.589,0.713,1.589,1.59V106.162z"/>
				</g>
				<g>
					
						<linearGradient id="SVGID_8_" gradientUnits="userSpaceOnUse" x1="-3516.1641" y1="5080.6514" x2="-3512.9858" y2="5080.6514" gradientTransform="matrix(-4.371139e-08 1 -1 -4.371139e-08 5185.4746 3577.0762)">
						<stop  offset="0" style="stop-color:#5F5D5C"/>
						<stop  offset="1" style="stop-color:#181500"/>
					</linearGradient>
					<path fill="url(#SVGID_8_)" d="M101.417,64.09c-0.877,0-1.589-0.711-1.589-1.589l0,0c0-0.878,0.712-1.589,1.589-1.589h6.812
						c0.877,0,1.589,0.711,1.589,1.589l0,0c0,0.878-0.712,1.589-1.589,1.589H101.417z"/>
					
						<linearGradient id="SVGID_9_" gradientUnits="userSpaceOnUse" x1="-3516.1641" y1="5161.1592" x2="-3512.9858" y2="5161.1592" gradientTransform="matrix(-4.371139e-08 1 -1 -4.371139e-08 5185.4746 3577.0762)">
						<stop  offset="0" style="stop-color:#5F5D5C"/>
						<stop  offset="1" style="stop-color:#181500"/>
					</linearGradient>
					<path fill="url(#SVGID_9_)" d="M20.909,64.09c-0.877,0-1.589-0.711-1.589-1.589l0,0c0-0.878,0.712-1.589,1.589-1.589h6.812
						c0.877,0,1.589,0.711,1.589,1.589l0,0c0,0.878-0.712,1.589-1.589,1.589H20.909z"/>
				</g>
			</g>
			<g>
				<g>
					
						<linearGradient id="SVGID_10_" gradientUnits="userSpaceOnUse" x1="-2109.7207" y1="1063.6943" x2="-2106.542" y2="1063.6943" gradientTransform="matrix(0.8487 0.5288 -0.5288 0.8487 2437.6079 240.2943)">
						<stop  offset="0" style="stop-color:#5F5D5C"/>
						<stop  offset="1" style="stop-color:#181500"/>
					</linearGradient>
					<path fill="url(#SVGID_10_)" d="M85.403,32.066c-0.465,0.745-1.445,0.974-2.189,0.509l0,0
						c-0.746-0.465-0.973-1.444-0.508-2.188l3.602-5.782c0.465-0.744,1.443-0.973,2.189-0.509l0,0
						c0.744,0.465,0.973,1.444,0.508,2.188L85.403,32.066z"/>
					
						<linearGradient id="SVGID_11_" gradientUnits="userSpaceOnUse" x1="-2109.7207" y1="1144.2031" x2="-2106.542" y2="1144.2031" gradientTransform="matrix(0.8487 0.5288 -0.5288 0.8487 2437.6079 240.2943)">
						<stop  offset="0" style="stop-color:#5F5D5C"/>
						<stop  offset="1" style="stop-color:#181500"/>
					</linearGradient>
					<path fill="url(#SVGID_11_)" d="M42.831,100.398c-0.465,0.744-1.443,0.973-2.189,0.508l0,0
						c-0.746-0.463-0.973-1.445-0.508-2.188l3.602-5.783c0.465-0.744,1.443-0.973,2.189-0.508l0,0
						c0.744,0.463,0.971,1.443,0.508,2.189L42.831,100.398z"/>
				</g>
				<g>
					
						<linearGradient id="SVGID_12_" gradientUnits="userSpaceOnUse" x1="-2474.7178" y1="7253.3516" x2="-2471.5391" y2="7253.3516" gradientTransform="matrix(-0.5288 0.8487 -0.8487 -0.5288 4947.2358 6018.3901)">
						<stop  offset="0" style="stop-color:#5F5D5C"/>
						<stop  offset="1" style="stop-color:#181500"/>
					</linearGradient>
					<path fill="url(#SVGID_12_)" d="M95.003,83.336c-0.744-0.465-0.973-1.443-0.508-2.189l0,0c0.463-0.746,1.443-0.973,2.189-0.508
						l5.781,3.602c0.744,0.465,0.973,1.443,0.508,2.189l0,0c-0.463,0.744-1.445,0.973-2.188,0.508L95.003,83.336z"/>
					
						<linearGradient id="SVGID_13_" gradientUnits="userSpaceOnUse" x1="-2474.7178" y1="7333.8594" x2="-2471.5391" y2="7333.8594" gradientTransform="matrix(-0.5288 0.8487 -0.8487 -0.5288 4947.2358 6018.3901)">
						<stop  offset="0" style="stop-color:#5F5D5C"/>
						<stop  offset="1" style="stop-color:#181500"/>
					</linearGradient>
					<path fill="url(#SVGID_13_)" d="M26.671,40.763c-0.742-0.465-0.971-1.443-0.506-2.189l0,0c0.463-0.745,1.443-0.973,2.188-0.508
						l5.781,3.602c0.744,0.465,0.973,1.443,0.51,2.188l0,0c-0.465,0.746-1.445,0.974-2.189,0.509L26.671,40.763z"/>
				</g>
			</g>
			<g>
				<g>
					
						<linearGradient id="SVGID_14_" gradientUnits="userSpaceOnUse" x1="-3322.5967" y1="2862.1152" x2="-3319.4199" y2="2862.1152" gradientTransform="matrix(0.4912 0.8711 -0.8711 0.4912 4223.8945 1529.7639)">
						<stop  offset="0" style="stop-color:#5F5D5C"/>
						<stop  offset="1" style="stop-color:#181500"/>
					</linearGradient>
					<path fill="url(#SVGID_14_)" d="M97.446,45.786c-0.764,0.432-1.733,0.162-2.164-0.603l0,0c-0.432-0.765-0.16-1.733,0.603-2.164
						l5.936-3.347c0.764-0.431,1.732-0.161,2.164,0.604l0,0c0.431,0.766,0.16,1.734-0.604,2.164L97.446,45.786z"/>
					
						<linearGradient id="SVGID_15_" gradientUnits="userSpaceOnUse" x1="-3322.5967" y1="2942.623" x2="-3319.4189" y2="2942.623" gradientTransform="matrix(0.4912 0.8711 -0.8711 0.4912 4223.8945 1529.7639)">
						<stop  offset="0" style="stop-color:#5F5D5C"/>
						<stop  offset="1" style="stop-color:#181500"/>
					</linearGradient>
					<path fill="url(#SVGID_15_)" d="M27.319,85.33c-0.765,0.43-1.733,0.16-2.165-0.604l0,0c-0.432-0.764-0.16-1.734,0.604-2.164
						l5.933-3.346c0.765-0.432,1.733-0.162,2.165,0.602l0,0c0.432,0.766,0.16,1.734-0.604,2.166L27.319,85.33z"/>
				</g>
				<g>
					
						<linearGradient id="SVGID_16_" gradientUnits="userSpaceOnUse" x1="-676.2939" y1="8466.2324" x2="-673.1172" y2="8466.2324" gradientTransform="matrix(-0.8711 0.4912 -0.4912 -0.8711 3654.9695 7803.5957)">
						<stop  offset="0" style="stop-color:#5F5D5C"/>
						<stop  offset="1" style="stop-color:#181500"/>
					</linearGradient>
					<path fill="url(#SVGID_16_)" d="M81.284,95.379c-0.431-0.764-0.161-1.732,0.603-2.164l0,0c0.766-0.432,1.734-0.16,2.165,0.604
						l3.346,5.934c0.431,0.764,0.162,1.732-0.604,2.164l0,0c-0.764,0.432-1.733,0.162-2.164-0.604L81.284,95.379z"/>
					
						<linearGradient id="SVGID_17_" gradientUnits="userSpaceOnUse" x1="-676.2944" y1="8546.7422" x2="-673.1162" y2="8546.7422" gradientTransform="matrix(-0.8711 0.4912 -0.4912 -0.8711 3654.9695 7803.5957)">
						<stop  offset="0" style="stop-color:#5F5D5C"/>
						<stop  offset="1" style="stop-color:#181500"/>
					</linearGradient>
					<path fill="url(#SVGID_17_)" d="M41.74,25.251c-0.43-0.764-0.161-1.732,0.604-2.165l0,0c0.765-0.431,1.734-0.16,2.164,0.604
						l3.346,5.933c0.431,0.765,0.161,1.733-0.603,2.165l0,0c-0.766,0.433-1.735,0.161-2.164-0.603L41.74,25.251z"/>
				</g>
			</g>
		</g>
		<g>
			
				<linearGradient id="SVGID_18_" gradientUnits="userSpaceOnUse" x1="-3181.7339" y1="2794.0352" x2="-3176.9595" y2="2794.0352" gradientTransform="matrix(0.5118 0.8591 -0.8591 0.5118 4102.2051 1360.8698)">
				<stop  offset="0" style="stop-color:#FFD207"/>
				<stop  offset="1" style="stop-color:#FAA61A"/>
			</linearGradient>
			<path fill="url(#SVGID_18_)" d="M65.195,67.998c0.841-0.521,1.247-1.482,1.101-2.406L90.9,49.904L65.386,64.078
				c-0.764-0.585-1.836-0.675-2.702-0.14c-0.798,0.494-1.195,1.38-1.112,2.257l-3.863,2.146l1.177,1.977l3.724-2.375
				C63.363,68.451,64.372,68.506,65.195,67.998z"/>
			
				<linearGradient id="SVGID_19_" gradientUnits="userSpaceOnUse" x1="1693.7939" y1="56.5913" x2="1700.0127" y2="56.5913" gradientTransform="matrix(0.9279 -0.3729 0.3729 0.9279 -1537.7197 630.9349)">
				<stop  offset="0" style="stop-color:#E20A16"/>
				<stop  offset="1" style="stop-color:#B51015"/>
			</linearGradient>
			<path fill="url(#SVGID_19_)" d="M66.764,64.4c-0.502-1.189-1.657-1.904-2.874-1.902L48.646,27.659l13.109,35.705
				c-0.905,0.866-1.237,2.228-0.723,3.451c0.475,1.129,1.537,1.818,2.683,1.889l1.985,5.406l2.781-1.117l-2.308-5.273
				C66.979,66.85,67.253,65.561,66.764,64.4z"/>
		</g>
	</g>
</g>
</svg>
