<?xml version="1.0" encoding="utf-8"?>
<!-- Generator: Adobe Illustrator 13.0.0, SVG Export Plug-In . SVG Version: 6.00 Build 14948)  -->
<!DOCTYPE svg PUBLIC "-//W3C//DTD SVG 1.1//EN" "http://www.w3.org/Graphics/SVG/1.1/DTD/svg11.dtd">
<svg version="1.1" id="Layer_1" xmlns="http://www.w3.org/2000/svg" xmlns:xlink="http://www.w3.org/1999/xlink" x="0px" y="0px"
	 width="128px" height="128px" viewBox="0 0 128 128" enable-background="new 0 0 128 128" xml:space="preserve">
<g>
	<g>
		
			<radialGradient id="SVGID_1_" cx="63.3481" cy="63.1396" r="53.1356" gradientTransform="matrix(1 0 0 1 0 -9.765625e-04)" gradientUnits="userSpaceOnUse">
			<stop  offset="0" style="stop-color:#FAFAFA"/>
			<stop  offset="0.3109" style="stop-color:#F4F4F4"/>
			<stop  offset="0.7262" style="stop-color:#E3E3E3"/>
			<stop  offset="1" style="stop-color:#D4D4D4"/>
		</radialGradient>
		<path fill="url(#SVGID_1_)" stroke="#B3B3B3" stroke-width="2" d="M108.031,21.345v83.586c0,10.285-8.344,18.625-18.637,18.625
			H37.302c-10.295,0-18.637-8.34-18.637-18.625V21.345c0-10.285,8.342-18.623,18.637-18.623h52.093
			C99.688,2.722,108.031,11.06,108.031,21.345L108.031,21.345z"/>
		<path fill="#B3B3B3" d="M89.59,121.229H37.496c-10.295,0-18.637-8.34-18.637-18.625v2.326c0,10.285,8.342,18.625,18.637,18.625
			H89.59c10.293,0,18.637-8.34,18.637-18.625v-2.326C108.227,112.89,99.883,121.229,89.59,121.229z"/>
		<path fill="#FFFFFF" d="M29.831,10.708c2.079-1.734,4.432-2.905,7.665-2.905H89.59c3.234,0,5.586,1.171,7.666,2.905h2.629
			C97.264,8.062,94.08,6.47,89.59,6.47H37.496c-4.489,0-7.673,1.593-10.294,4.238H29.831z"/>
	</g>
	<linearGradient id="SVGID_2_" gradientUnits="userSpaceOnUse" x1="63.4468" y1="87.0771" x2="63.4468" y2="39.2017">
		<stop  offset="0" style="stop-color:#00B2DE"/>
		<stop  offset="1" style="stop-color:#99DBF6"/>
	</linearGradient>
	<polygon fill="url(#SVGID_2_)" stroke="#0091DE" points="87.305,61.544 83.236,49.696 67.435,58.554 73.959,41.632 61.627,39.201 
		61.428,57.313 50.1,43.22 41.838,52.636 57.352,62.015 39.588,64.718 43.657,76.565 59.369,67.832 56.098,76.239 52.826,84.646 
		65.156,87.077 65.355,68.964 76.686,83.06 84.947,73.643 77.191,68.952 69.45,64.37 	"/>
</g>
</svg>
