<?xml version="1.0" encoding="utf-8"?>
<!-- Generator: Adobe Illustrator 13.0.0, SVG Export Plug-In . SVG Version: 6.00 Build 14948)  -->
<!DOCTYPE svg PUBLIC "-//W3C//DTD SVG 1.1//EN" "http://www.w3.org/Graphics/SVG/1.1/DTD/svg11.dtd">
<svg version="1.1" id="Layer_1" xmlns="http://www.w3.org/2000/svg" xmlns:xlink="http://www.w3.org/1999/xlink" x="0px" y="0px"
	 width="128px" height="128px" viewBox="0 0 128 128" enable-background="new 0 0 128 128" xml:space="preserve">
<g>
	<g>
		
			<radialGradient id="SVGID_1_" cx="63.9028" cy="64.002" r="53.1356" gradientTransform="matrix(1 0 0 1 0 -9.765625e-04)" gradientUnits="userSpaceOnUse">
			<stop  offset="0" style="stop-color:#FAFAFA"/>
			<stop  offset="0.3109" style="stop-color:#F4F4F4"/>
			<stop  offset="0.7262" style="stop-color:#E3E3E3"/>
			<stop  offset="1" style="stop-color:#D4D4D4"/>
		</radialGradient>
		<path fill="url(#SVGID_1_)" stroke="#B3B3B3" stroke-width="2" d="M108.586,22.207v83.586c0,10.285-8.344,18.625-18.637,18.625
			H37.856c-10.295,0-18.637-8.34-18.637-18.625V22.207c0-10.285,8.342-18.623,18.637-18.623h52.093
			C100.242,3.584,108.586,11.922,108.586,22.207L108.586,22.207z"/>
		<path fill="#B3B3B3" d="M90.145,122.092H38.051c-10.295,0-18.637-8.34-18.637-18.625v2.326c0,10.285,8.342,18.625,18.637,18.625
			h52.094c10.293,0,18.637-8.34,18.637-18.625v-2.326C108.781,113.752,100.438,122.092,90.145,122.092z"/>
		<path fill="#FFFFFF" d="M30.386,11.57c2.079-1.734,4.432-2.905,7.665-2.905h52.094c3.234,0,5.586,1.171,7.666,2.905h2.629
			c-2.621-2.646-5.805-4.238-10.295-4.238H38.051c-4.489,0-7.673,1.593-10.294,4.238H30.386z"/>
	</g>
	<g>
		
			<linearGradient id="SVGID_2_" gradientUnits="userSpaceOnUse" x1="-364.6284" y1="915.3438" x2="-311.5068" y2="915.3438" gradientTransform="matrix(1 0 0 1 412.6201 -813.9922)">
			<stop  offset="0" style="stop-color:#5F5D5C"/>
			<stop  offset="1" style="stop-color:#181500"/>
		</linearGradient>
		<path fill="url(#SVGID_2_)" d="M101.113,108.033c0,4.971-4.027,9-9,9H56.992c-4.972,0-9-4.029-9-9V94.67c0-4.971,4.028-9,9-9
			h35.122c4.971,0,9,4.029,9,9V108.033L101.113,108.033z"/>
		<g>
			<g>
				<g>
					<path fill="#FFFFFF" d="M59.261,110.824h-0.158V91.879h0.158c0.723,0,1.307-0.481,1.307-1.08c0-0.596-0.584-1.08-1.307-1.08
						h-2.859c-0.721,0-1.306,0.484-1.306,1.08c0,0.599,0.585,1.08,1.306,1.08h0.242v18.945h-0.242c-0.721,0-1.306,0.482-1.306,1.079
						c0,0.599,0.585,1.08,1.306,1.08h2.859c0.723,0,1.307-0.481,1.307-1.08C60.568,111.308,59.984,110.824,59.261,110.824z"/>
				</g>
			</g>
		</g>
	</g>
</g>
</svg>
