<?xml version="1.0" encoding="utf-8"?>
<!-- Generator: Adobe Illustrator 13.0.0, SVG Export Plug-In . SVG Version: 6.00 Build 14948)  -->
<!DOCTYPE svg PUBLIC "-//W3C//DTD SVG 1.1//EN" "http://www.w3.org/Graphics/SVG/1.1/DTD/svg11.dtd">
<svg version="1.1" id="Layer_1" xmlns="http://www.w3.org/2000/svg" xmlns:xlink="http://www.w3.org/1999/xlink" x="0px" y="0px"
	 width="128px" height="128px" viewBox="0 0 128 128" enable-background="new 0 0 128 128" xml:space="preserve">
<g>
	<g>
		
			<radialGradient id="SVGID_1_" cx="63.9028" cy="64.002" r="53.1356" gradientTransform="matrix(1 0 0 1 0 -9.765625e-04)" gradientUnits="userSpaceOnUse">
			<stop  offset="0" style="stop-color:#FAFAFA"/>
			<stop  offset="0.3109" style="stop-color:#F4F4F4"/>
			<stop  offset="0.7262" style="stop-color:#E3E3E3"/>
			<stop  offset="1" style="stop-color:#D4D4D4"/>
		</radialGradient>
		<path fill="url(#SVGID_1_)" stroke="#B3B3B3" stroke-width="2" d="M108.586,22.207v83.586c0,10.285-8.344,18.625-18.637,18.625
			H37.856c-10.295,0-18.637-8.34-18.637-18.625V22.207c0-10.285,8.342-18.623,18.637-18.623h52.093
			C100.242,3.584,108.586,11.922,108.586,22.207L108.586,22.207z"/>
		<path fill="#B3B3B3" d="M90.145,122.092H38.051c-10.295,0-18.637-8.34-18.637-18.625v2.326c0,10.285,8.342,18.625,18.637,18.625
			h52.094c10.293,0,18.637-8.34,18.637-18.625v-2.326C108.781,113.752,100.438,122.092,90.145,122.092z"/>
		<path fill="#FFFFFF" d="M30.386,11.57c2.079-1.734,4.432-2.905,7.665-2.905h52.094c3.234,0,5.586,1.171,7.666,2.905h2.629
			c-2.621-2.646-5.805-4.238-10.295-4.238H38.051c-4.489,0-7.673,1.593-10.294,4.238H30.386z"/>
	</g>
	<g>
		<g>
			<g>
				
					<linearGradient id="SVGID_2_" gradientUnits="userSpaceOnUse" x1="-353.9854" y1="905.3701" x2="-311.7764" y2="905.3701" gradientTransform="matrix(1 0 0 1 412.6201 -813.9922)">
					<stop  offset="0" style="stop-color:#E20A16"/>
					<stop  offset="1" style="stop-color:#B51015"/>
				</linearGradient>
				<path fill="url(#SVGID_2_)" d="M79.739,70.273c-11.656,0-21.104,9.451-21.104,21.106c0,11.654,9.448,21.103,21.104,21.103
					s21.104-9.448,21.104-21.103C100.844,79.725,91.396,70.273,79.739,70.273z M79.739,78.26c2.188,0,4.251,0.544,6.064,1.493
					L68.115,97.441c-0.949-1.814-1.493-3.873-1.493-6.062C66.622,84.133,72.494,78.26,79.739,78.26z M79.739,104.496
					c-2.189,0-4.249-0.542-6.063-1.492l17.688-17.688c0.948,1.813,1.492,3.876,1.492,6.064
					C92.857,98.623,86.983,104.496,79.739,104.496z"/>
			</g>
		</g>
		<path opacity="0.5" fill="#FFFFFF" d="M61.925,83.224c4.014-5.841,11.016-10.63,17.91-10.63c6.896,0,13.709,4.789,17.72,10.63
			h0.762c-4.251-6.876-10.777-11.687-18.575-11.687c-7.802,0-14.326,4.811-18.579,11.687H61.925z"/>
	</g>
</g>
</svg>
