<?xml version="1.0" encoding="utf-8"?>
<!-- Generator: Adobe Illustrator 13.0.0, SVG Export Plug-In . SVG Version: 6.00 Build 14948)  -->
<!DOCTYPE svg PUBLIC "-//W3C//DTD SVG 1.1//EN" "http://www.w3.org/Graphics/SVG/1.1/DTD/svg11.dtd">
<svg version="1.1" id="Layer_1" xmlns="http://www.w3.org/2000/svg" xmlns:xlink="http://www.w3.org/1999/xlink" x="0px" y="0px"
	 width="128px" height="128px" viewBox="0 0 128 128" enable-background="new 0 0 128 128" xml:space="preserve">
<g>
	<g>
		
			<linearGradient id="SVGID_1_" gradientUnits="userSpaceOnUse" x1="-2568.0776" y1="1616.4121" x2="-2548.3333" y2="1616.0844" gradientTransform="matrix(0.7461 0.6658 -0.6658 0.7461 3091.1138 514.4963)">
			<stop  offset="0" style="stop-color:#5F5D5C"/>
			<stop  offset="1" style="stop-color:#181500"/>
		</linearGradient>
		<path fill="url(#SVGID_1_)" d="M115.086,15.86l-8.58-7.656c-1.699-1.516-4.305-1.368-5.822,0.332s-1.369,4.307,0.33,5.825
			l0.746,0.665l-3.662,4.104l7.088,6.324l3.664-4.103l0.746,0.666c1.699,1.516,4.307,1.367,5.822-0.332
			C116.936,19.985,116.787,17.377,115.086,15.86z"/>
		<linearGradient id="SVGID_2_" gradientUnits="userSpaceOnUse" x1="64.2397" y1="5.8892" x2="64.2397" y2="121.6489">
			<stop  offset="0" style="stop-color:#E20A16"/>
			<stop  offset="1" style="stop-color:#B51015"/>
		</linearGradient>
		<circle fill="url(#SVGID_2_)" cx="64.24" cy="63.769" r="57.879"/>
		<radialGradient id="SVGID_3_" cx="64.2412" cy="63.7695" r="49.3901" gradientUnits="userSpaceOnUse">
			<stop  offset="0" style="stop-color:#FAFAFA"/>
			<stop  offset="0.3109" style="stop-color:#F4F4F4"/>
			<stop  offset="0.7262" style="stop-color:#E3E3E3"/>
			<stop  offset="1" style="stop-color:#D4D4D4"/>
		</radialGradient>
		<circle fill="url(#SVGID_3_)" cx="64.241" cy="63.769" r="49.39"/>
		<path opacity="0.5" fill="#FFFFFF" d="M17.255,38.486c10.583-15.41,29.048-28.037,47.235-28.037
			c18.185,0,36.158,12.627,46.736,28.037h2.012C102.025,20.349,84.812,7.664,64.245,7.664c-20.574,0-37.788,12.686-49.004,30.822
			H17.255z"/>
		<linearGradient id="SVGID_4_" gradientUnits="userSpaceOnUse" x1="37.4233" y1="78.8398" x2="55.6851" y2="78.8398">
			<stop  offset="0" style="stop-color:#E20A16"/>
			<stop  offset="1" style="stop-color:#B51015"/>
		</linearGradient>
		<circle fill="url(#SVGID_4_)" cx="46.554" cy="78.84" r="9.131"/>
		<linearGradient id="SVGID_5_" gradientUnits="userSpaceOnUse" x1="72.6191" y1="78.8398" x2="90.8809" y2="78.8398">
			<stop  offset="0" style="stop-color:#FFD207"/>
			<stop  offset="1" style="stop-color:#FAA61A"/>
		</linearGradient>
		<circle fill="url(#SVGID_5_)" cx="81.75" cy="78.84" r="9.131"/>
		<g>
			<g>
				<g>
					<linearGradient id="SVGID_6_" gradientUnits="userSpaceOnUse" x1="62.979" y1="22.2476" x2="66.1562" y2="22.2476">
						<stop  offset="0" style="stop-color:#5F5D5C"/>
						<stop  offset="1" style="stop-color:#181500"/>
					</linearGradient>
					<path fill="url(#SVGID_6_)" d="M66.156,25.654c0,0.877-0.711,1.589-1.588,1.589l0,0c-0.878,0-1.589-0.712-1.589-1.589v-6.812
						c0-0.877,0.711-1.589,1.589-1.589l0,0c0.877,0,1.588,0.712,1.588,1.589V25.654z"/>
					<linearGradient id="SVGID_7_" gradientUnits="userSpaceOnUse" x1="62.979" y1="102.7549" x2="66.1562" y2="102.7549">
						<stop  offset="0" style="stop-color:#5F5D5C"/>
						<stop  offset="1" style="stop-color:#181500"/>
					</linearGradient>
					<path fill="url(#SVGID_7_)" d="M66.156,106.162c0,0.877-0.711,1.588-1.588,1.588l0,0c-0.878,0-1.589-0.711-1.589-1.588V99.35
						c0-0.877,0.711-1.59,1.589-1.59l0,0c0.877,0,1.588,0.713,1.588,1.59V106.162z"/>
				</g>
				<g>
					
						<linearGradient id="SVGID_8_" gradientUnits="userSpaceOnUse" x1="-3516.1636" y1="5080.6533" x2="-3512.9858" y2="5080.6533" gradientTransform="matrix(-4.371139e-08 1 -1 -4.371139e-08 5185.4746 3577.0762)">
						<stop  offset="0" style="stop-color:#5F5D5C"/>
						<stop  offset="1" style="stop-color:#181500"/>
					</linearGradient>
					<path fill="url(#SVGID_8_)" d="M101.416,64.09c-0.877,0-1.59-0.711-1.59-1.589l0,0c0-0.878,0.713-1.589,1.59-1.589h6.812
						c0.877,0,1.588,0.711,1.588,1.589l0,0c0,0.878-0.711,1.589-1.588,1.589H101.416z"/>
					
						<linearGradient id="SVGID_9_" gradientUnits="userSpaceOnUse" x1="-3516.1636" y1="5161.1602" x2="-3512.9858" y2="5161.1602" gradientTransform="matrix(-4.371139e-08 1 -1 -4.371139e-08 5185.4746 3577.0762)">
						<stop  offset="0" style="stop-color:#5F5D5C"/>
						<stop  offset="1" style="stop-color:#181500"/>
					</linearGradient>
					<path fill="url(#SVGID_9_)" d="M20.908,64.09c-0.877,0-1.589-0.711-1.589-1.589l0,0c0-0.878,0.712-1.589,1.589-1.589h6.812
						c0.877,0,1.589,0.711,1.589,1.589l0,0c0,0.878-0.712,1.589-1.589,1.589H20.908z"/>
				</g>
			</g>
			<g>
				<g>
					
						<linearGradient id="SVGID_10_" gradientUnits="userSpaceOnUse" x1="-2109.7217" y1="1063.6963" x2="-2106.543" y2="1063.6963" gradientTransform="matrix(0.8487 0.5288 -0.5288 0.8487 2437.6079 240.2943)">
						<stop  offset="0" style="stop-color:#5F5D5C"/>
						<stop  offset="1" style="stop-color:#181500"/>
					</linearGradient>
					<path fill="url(#SVGID_10_)" d="M85.402,32.067c-0.465,0.745-1.445,0.974-2.189,0.509l0,0
						c-0.746-0.465-0.973-1.444-0.508-2.188l3.602-5.782c0.465-0.744,1.443-0.973,2.189-0.509l0,0
						c0.744,0.465,0.973,1.444,0.508,2.188L85.402,32.067z"/>
					
						<linearGradient id="SVGID_11_" gradientUnits="userSpaceOnUse" x1="-2109.7217" y1="1144.2041" x2="-2106.543" y2="1144.2041" gradientTransform="matrix(0.8487 0.5288 -0.5288 0.8487 2437.6079 240.2943)">
						<stop  offset="0" style="stop-color:#5F5D5C"/>
						<stop  offset="1" style="stop-color:#181500"/>
					</linearGradient>
					<path fill="url(#SVGID_11_)" d="M42.83,100.398c-0.465,0.744-1.443,0.973-2.189,0.508l0,0
						c-0.746-0.463-0.973-1.445-0.508-2.188l3.602-5.783c0.465-0.744,1.443-0.973,2.189-0.508l0,0
						c0.744,0.463,0.971,1.443,0.508,2.189L42.83,100.398z"/>
				</g>
				<g>
					
						<linearGradient id="SVGID_12_" gradientUnits="userSpaceOnUse" x1="-2474.7173" y1="7253.3516" x2="-2471.5386" y2="7253.3516" gradientTransform="matrix(-0.5288 0.8487 -0.8487 -0.5288 4947.2358 6018.3901)">
						<stop  offset="0" style="stop-color:#5F5D5C"/>
						<stop  offset="1" style="stop-color:#181500"/>
					</linearGradient>
					<path fill="url(#SVGID_12_)" d="M95.002,83.336c-0.744-0.465-0.973-1.443-0.508-2.189l0,0c0.463-0.746,1.443-0.973,2.189-0.508
						l5.781,3.602c0.744,0.465,0.973,1.443,0.508,2.189l0,0c-0.463,0.744-1.445,0.973-2.188,0.508L95.002,83.336z"/>
					
						<linearGradient id="SVGID_13_" gradientUnits="userSpaceOnUse" x1="-2474.7168" y1="7333.8594" x2="-2471.5381" y2="7333.8594" gradientTransform="matrix(-0.5288 0.8487 -0.8487 -0.5288 4947.2358 6018.3901)">
						<stop  offset="0" style="stop-color:#5F5D5C"/>
						<stop  offset="1" style="stop-color:#181500"/>
					</linearGradient>
					<path fill="url(#SVGID_13_)" d="M26.669,40.763c-0.742-0.465-0.971-1.443-0.506-2.189l0,0c0.463-0.745,1.443-0.973,2.188-0.508
						l5.781,3.602c0.744,0.465,0.973,1.443,0.51,2.188l0,0c-0.465,0.746-1.445,0.974-2.189,0.509L26.669,40.763z"/>
				</g>
			</g>
			<g>
				<g>
					
						<linearGradient id="SVGID_14_" gradientUnits="userSpaceOnUse" x1="-3322.5977" y1="2862.1172" x2="-3319.4199" y2="2862.1172" gradientTransform="matrix(0.4912 0.8711 -0.8711 0.4912 4223.8945 1529.7639)">
						<stop  offset="0" style="stop-color:#5F5D5C"/>
						<stop  offset="1" style="stop-color:#181500"/>
					</linearGradient>
					<path fill="url(#SVGID_14_)" d="M97.445,45.787c-0.764,0.432-1.734,0.162-2.164-0.603l0,0c-0.432-0.765-0.16-1.733,0.602-2.164
						l5.936-3.347c0.764-0.431,1.732-0.161,2.164,0.604l0,0c0.432,0.766,0.16,1.734-0.604,2.164L97.445,45.787z"/>
					
						<linearGradient id="SVGID_15_" gradientUnits="userSpaceOnUse" x1="-3322.5977" y1="2942.625" x2="-3319.4199" y2="2942.625" gradientTransform="matrix(0.4912 0.8711 -0.8711 0.4912 4223.8945 1529.7639)">
						<stop  offset="0" style="stop-color:#5F5D5C"/>
						<stop  offset="1" style="stop-color:#181500"/>
					</linearGradient>
					<path fill="url(#SVGID_15_)" d="M27.318,85.33c-0.765,0.43-1.733,0.16-2.165-0.604l0,0c-0.432-0.764-0.16-1.734,0.604-2.164
						l5.933-3.346c0.765-0.432,1.733-0.162,2.165,0.602l0,0c0.432,0.766,0.16,1.734-0.604,2.166L27.318,85.33z"/>
				</g>
				<g>
					
						<linearGradient id="SVGID_16_" gradientUnits="userSpaceOnUse" x1="-676.293" y1="8466.2344" x2="-673.1162" y2="8466.2344" gradientTransform="matrix(-0.8711 0.4912 -0.4912 -0.8711 3654.9695 7803.5957)">
						<stop  offset="0" style="stop-color:#5F5D5C"/>
						<stop  offset="1" style="stop-color:#181500"/>
					</linearGradient>
					<path fill="url(#SVGID_16_)" d="M81.283,95.379c-0.432-0.764-0.162-1.732,0.602-2.164l0,0c0.766-0.432,1.734-0.16,2.166,0.604
						l3.346,5.934c0.43,0.764,0.162,1.732-0.604,2.164l0,0c-0.764,0.432-1.734,0.162-2.164-0.604L81.283,95.379z"/>
					
						<linearGradient id="SVGID_17_" gradientUnits="userSpaceOnUse" x1="-676.293" y1="8546.7422" x2="-673.1143" y2="8546.7422" gradientTransform="matrix(-0.8711 0.4912 -0.4912 -0.8711 3654.9695 7803.5957)">
						<stop  offset="0" style="stop-color:#5F5D5C"/>
						<stop  offset="1" style="stop-color:#181500"/>
					</linearGradient>
					<path fill="url(#SVGID_17_)" d="M41.739,25.251c-0.43-0.764-0.161-1.732,0.604-2.165l0,0c0.765-0.431,1.734-0.16,2.164,0.604
						l3.346,5.933c0.431,0.765,0.161,1.733-0.603,2.165l0,0c-0.766,0.433-1.735,0.161-2.164-0.603L41.739,25.251z"/>
				</g>
			</g>
		</g>
		<g>
			
				<linearGradient id="SVGID_18_" gradientUnits="userSpaceOnUse" x1="-3181.7358" y1="2794.0361" x2="-3176.9614" y2="2794.0361" gradientTransform="matrix(0.5118 0.8591 -0.8591 0.5118 4102.2051 1360.8698)">
				<stop  offset="0" style="stop-color:#FFD207"/>
				<stop  offset="1" style="stop-color:#FAA61A"/>
			</linearGradient>
			<path fill="url(#SVGID_18_)" d="M65.193,67.998c0.842-0.521,1.248-1.482,1.102-2.406l24.604-15.687L65.385,64.078
				c-0.764-0.585-1.836-0.675-2.703-0.14c-0.798,0.494-1.195,1.38-1.112,2.257l-3.863,2.146l1.177,1.977l3.724-2.375
				C63.362,68.451,64.371,68.506,65.193,67.998z"/>
			
				<linearGradient id="SVGID_19_" gradientUnits="userSpaceOnUse" x1="1693.793" y1="56.5913" x2="1700.0107" y2="56.5913" gradientTransform="matrix(0.9279 -0.3729 0.3729 0.9279 -1537.7197 630.9349)">
				<stop  offset="0" style="stop-color:#E20A16"/>
				<stop  offset="1" style="stop-color:#B51015"/>
			</linearGradient>
			<path fill="url(#SVGID_19_)" d="M66.762,64.4c-0.502-1.189-1.656-1.904-2.874-1.902L48.644,27.66l13.109,35.704
				c-0.905,0.866-1.237,2.228-0.723,3.451c0.475,1.129,1.537,1.818,2.683,1.889l1.986,5.406l2.781-1.117l-2.309-5.273
				C66.979,66.85,67.252,65.561,66.762,64.4z"/>
		</g>
	</g>
	<g>
		
			<linearGradient id="SVGID_20_" gradientUnits="userSpaceOnUse" x1="-220.8442" y1="1252.2051" x2="-146.0207" y2="1252.2051" gradientTransform="matrix(0 1 1 0 -1168.5752 258.4775)">
			<stop  offset="0" style="stop-color:#80E21B"/>
			<stop  offset="1" style="stop-color:#80B400"/>
		</linearGradient>
		<path fill="url(#SVGID_20_)" d="M57.786,43.354c0.012-4.199,4.711-6.811,8.345-4.704l40.635,23.563
			c3.625,2.101,3.609,7.341-0.027,9.423L65.949,94.975c-3.643,2.086-8.177-0.553-8.165-4.75L57.786,43.354L57.786,43.354z"/>
		<g>
			<path fill="#FFFFFF" d="M60.865,90.812c-0.643-0.818-1.037-1.857-1.034-3.033V45.584c0.009-2.74,2.234-4.72,4.703-4.886
				c-2.717-0.181-5.354,1.902-5.362,4.886L59.17,87.779c-0.008,2.281,1.478,4.049,3.376,4.682
				C61.867,92.059,61.288,91.494,60.865,90.812z"/>
		</g>
		<path fill="#70993E" d="M107.541,62.652c2.096,2.473,1.615,6.467-1.453,8.223L65.299,94.213c-2.143,1.229-4.595,0.818-6.247-0.582
			c1.604,1.889,4.44,2.611,6.879,1.215l40.787-23.338C110.066,69.592,110.338,65.012,107.541,62.652z"/>
		<path opacity="0.3" fill="#FFFFFF" d="M66.625,75.623c0-11.356,7.211-21.027,17.305-24.686l-16.547-9.594
			c-3.287-1.906-7.538,0.456-7.548,4.253v42.388c-0.012,3.797,4.089,6.184,7.384,4.297l3.773-2.16
			C68.234,85.967,66.625,80.982,66.625,75.623z"/>
	</g>
</g>
</svg>
